<?xml version="1.0" encoding="UTF-8" standalone="no"?>
<!-- Created with Inkscape (http://www.inkscape.org/) -->

<svg
   xmlns:dc="http://purl.org/dc/elements/1.1/"
   xmlns:cc="http://creativecommons.org/ns#"
   xmlns:rdf="http://www.w3.org/1999/02/22-rdf-syntax-ns#"
   xmlns:svg="http://www.w3.org/2000/svg"
   xmlns="http://www.w3.org/2000/svg"
   xmlns:sodipodi="http://sodipodi.sourceforge.net/DTD/sodipodi-0.dtd"
   xmlns:inkscape="http://www.inkscape.org/namespaces/inkscape"
   width="600"
   height="160"
   id="svg2"
   version="1.1"
   inkscape:version="0.48.5 r10040"
   sodipodi:docname="aboutSection.svg"
   inkscape:export-filename="C:\Users\Radu\Dropbox\py_QT\Arcontrol_1\Graphics\aboutSection.png"
   inkscape:export-xdpi="90"
   inkscape:export-ydpi="90">
  <defs
     id="defs4" />
  <sodipodi:namedview
     id="base"
     pagecolor="#ffffff"
     bordercolor="#666666"
     borderopacity="1.0"
     inkscape:pageopacity="0.0"
     inkscape:pageshadow="2"
     inkscape:zoom="1.4"
     inkscape:cx="297.94264"
     inkscape:cy="154.70214"
     inkscape:document-units="px"
     inkscape:current-layer="layer1"
     showgrid="false"
     inkscape:window-width="1536"
     inkscape:window-height="803"
     inkscape:window-x="-8"
     inkscape:window-y="-8"
     inkscape:window-maximized="1" />
  <metadata
     id="metadata7">
    <rdf:RDF>
      <cc:Work
         rdf:about="">
        <dc:format>image/svg+xml</dc:format>
        <dc:type
           rdf:resource="http://purl.org/dc/dcmitype/StillImage" />
        <dc:title></dc:title>
      </cc:Work>
    </rdf:RDF>
  </metadata>
  <g
     inkscape:label="Layer 1"
     inkscape:groupmode="layer"
     id="layer1"
     transform="translate(0,-892.36218)">
    <g
       id="g3043"
       transform="matrix(1.7291049,0,0,1.7291049,169.39683,729.70433)">
	<path
   style="fill:#002057"
   inkscape:connector-curvature="0"
   d="m 10.171,142.972 c -5.226,0 -7.838,1.739 -7.838,5.226 v 13.091 h 4.336 v -5.557 h 6.975 v 5.557 h 4.339 v -13.091 c 0,-3.487 -2.605,-5.226 -7.812,-5.226 m -3.502,9.157 v -3.932 c 0,-0.817 0.259,-1.377 0.777,-1.683 0.52,-0.304 1.408,-0.459 2.669,-0.459 1.278,0 2.186,0.155 2.725,0.459 0.538,0.306 0.804,0.865 0.804,1.683 v 3.932 H 6.669 z"
   id="path3045" />

	<rect
   style="fill:#002057"
   x="58.036999"
   y="143.248"
   width="4.336"
   height="18.040001"
   id="rect3047" />

	<polygon
   style="fill:#002057"
   points="82.553,143.248 78.688,143.248 78.688,155.562 69.961,143.248 65.569,143.248 65.569,161.288 69.434,161.288 69.434,148.779 78.16,161.288 82.553,161.288 "
   id="polygon3049" />

	<path
   style="fill:#002057"
   inkscape:connector-curvature="0"
   d="m 92.771,143.248 v 0.002 c -2.723,0.009 -4.718,0.121 -5.98,0.847 -1.307,0.751 -1.958,1.906 -1.958,3.461 v 1.334 c 0,3.152 1.982,4.726 5.948,4.726 h 2.113 c 0.945,0 1.574,0.173 1.889,0.512 0.314,0.345 0.475,0.785 0.475,1.321 v 1.171 c 0,1.24 -1.208,1.86 -3.615,1.86 -1.222,0 -3.374,-0.241 -6.448,-0.724 v 3.309 c 2.537,0.335 4.667,0.502 6.392,0.502 1.241,0 2.313,-0.078 3.21,-0.239 0.9,-0.156 1.727,-0.425 2.487,-0.806 0.761,-0.378 1.336,-0.933 1.726,-1.665 0.389,-0.734 0.584,-1.635 0.584,-2.712 v -1.198 c 0,-1.517 -0.451,-2.667 -1.348,-3.443 -0.901,-0.778 -2.404,-1.168 -4.518,-1.168 h -2.169 c -1.594,0 -2.391,-0.471 -2.391,-1.418 v -1.276 c 0,-0.577 0.27,-0.925 0.806,-1.167 0.52,-0.232 1.453,-0.148 2.798,-0.144 v 0.002 h 12.136 v 14.954 h 4.334 v -14.954 h 5.535 v -3.086 H 92.771 z"
   id="path3051" />

	<path
   style="fill:#002057"
   inkscape:connector-curvature="0"
   d="m 130.357,152.757 c 0.785,-0.595 1.18,-1.438 1.18,-2.532 v -3.166 c 0,-1.391 -0.547,-2.372 -1.641,-2.95 -1.094,-0.572 -2.826,-0.86 -5.197,-0.86 h -8.118 v 18.04 h 4.336 v -7.087 h 2.004 l 4.723,7.087 h 5.004 l -5.227,-7.422 c 1.169,-0.147 2.147,-0.517 2.936,-1.11 m -3.074,-3.393 c 0,0.775 -0.186,1.303 -0.557,1.57 -0.369,0.268 -1.063,0.404 -2.084,0.404 h -3.725 v -5.005 h 3.725 c 0.965,0 1.643,0.124 2.043,0.375 0.396,0.251 0.598,0.712 0.598,1.374 v 1.282 z"
   id="path3053" />

	<path
   style="fill:#002057"
   inkscape:connector-curvature="0"
   d="m 145.715,156.341 c 0,0.816 -0.264,1.379 -0.779,1.68 -0.52,0.307 -1.408,0.461 -2.67,0.461 -1.279,0 -2.186,-0.154 -2.723,-0.461 -0.537,-0.301 -0.807,-0.863 -0.807,-1.68 V 143.248 H 134.4 v 13.093 c 0,3.485 2.604,5.228 7.811,5.228 5.225,0 7.838,-1.742 7.838,-5.228 v -13.093 h -4.334 v 13.093 z"
   id="path3055" />

	<polygon
   style="fill:#002057"
   points="174.01,143.248 168.199,143.248 163.809,156.146 159.361,143.248 153.189,143.248 153.189,161.288 157.164,161.288 157.164,147.946 157.275,147.946 161.975,161.288 165.447,161.288 170.008,147.946 170.09,147.946 170.09,161.288 174.01,161.288 "
   id="polygon3057" />

	<polygon
   style="fill:#002057"
   points="181.541,146.334 190.967,146.334 190.967,143.248 177.207,143.248 177.207,161.288 191.244,161.288 191.244,158.205 181.541,158.205 181.541,153.563 190.049,153.563 190.049,150.478 181.541,150.478 "
   id="polygon3059" />

	<polygon
   style="fill:#002057"
   points="210.453,143.248 206.586,143.248 206.586,155.562 197.859,143.248 193.469,143.248 193.469,161.288 197.332,161.288 197.332,148.779 206.057,161.288 210.453,161.288 "
   id="polygon3061" />

	<polygon
   style="fill:#002057"
   points="222.154,146.334 227.684,146.334 227.684,143.248 212.26,143.248 212.26,146.334 217.816,146.334 217.816,161.288 222.154,161.288 "
   id="polygon3063" />

	<path
   style="fill:#002057"
   inkscape:connector-curvature="0"
   d="m 241.982,151.505 c -0.896,-0.778 -2.4,-1.168 -4.514,-1.168 h -2.17 c -1.59,0 -2.391,-0.471 -2.391,-1.418 v -1.276 c 0,-0.577 0.268,-0.984 0.805,-1.226 0.537,-0.237 1.523,-0.361 2.947,-0.361 1.039,0 2.969,0.167 5.783,0.502 v -3.225 c -2.373,-0.242 -4.254,-0.365 -5.641,-0.365 -2.877,0 -4.963,0.376 -6.268,1.129 -1.309,0.751 -1.961,1.906 -1.961,3.461 v 1.334 c 0,3.152 1.98,4.726 5.947,4.726 h 2.111 c 0.947,0 1.578,0.173 1.891,0.512 0.314,0.345 0.471,0.785 0.471,1.321 v 1.171 c 0,1.24 -1.201,1.86 -3.609,1.86 -1.225,0 -3.375,-0.241 -6.451,-0.724 v 3.309 c 2.539,0.335 4.668,0.502 6.395,0.502 1.24,0 2.313,-0.082 3.211,-0.239 0.898,-0.156 1.727,-0.425 2.486,-0.806 0.76,-0.378 1.336,-0.933 1.725,-1.665 0.387,-0.734 0.584,-1.635 0.584,-2.712 v -1.198 c 0.001,-1.517 -0.448,-2.668 -1.351,-3.444"
   id="path3065" />

	<path
   style="fill:#002057"
   inkscape:connector-curvature="0"
   d="m 22.196,150.464 c -1.058,0.758 -1.585,2.11 -1.585,4.057 v 6.768 h 4.337 v -6.906 c 0,-1.315 0.731,-1.975 2.194,-1.975 0.908,0 2.048,0.121 3.419,0.36 v -3.166 c -1.295,-0.186 -2.548,-0.279 -3.753,-0.279 -2.018,-0.001 -3.556,0.378 -4.612,1.141"
   id="path3067" />

	<path
   style="fill:#002057"
   inkscape:connector-curvature="0"
   d="m 47.42,144.388 c -0.595,-0.37 -1.308,-0.669 -2.141,-0.902 -0.835,-0.232 -1.582,-0.374 -2.239,-0.43 -0.66,-0.057 -1.358,-0.084 -2.1,-0.084 -0.722,0 -1.408,0.027 -2.057,0.084 -0.648,0.056 -1.389,0.197 -2.222,0.43 -0.835,0.233 -1.545,0.532 -2.128,0.902 -0.583,0.374 -1.082,0.91 -1.501,1.615 -0.417,0.703 -0.625,1.519 -0.625,2.445 v 7.893 c 0,1.096 0.283,2.013 0.847,2.75 0.567,0.745 1.327,1.281 2.281,1.615 0.955,0.335 1.854,0.563 2.697,0.68 0.843,0.121 1.746,0.183 2.709,0.183 1.021,0 1.984,-0.077 2.891,-0.224 0.908,-0.15 1.817,-0.402 2.724,-0.765 0.909,-0.36 1.633,-0.904 2.169,-1.626 0.538,-0.724 0.805,-1.594 0.805,-2.613 v -1.034 h -4.336 v 1.034 c 0,0.465 -0.116,0.847 -0.345,1.154 -0.234,0.305 -0.572,0.523 -1.017,0.655 -0.443,0.126 -0.876,0.217 -1.292,0.263 -0.416,0.046 -0.932,0.068 -1.543,0.068 -0.611,0 -1.125,-0.022 -1.542,-0.068 -0.417,-0.046 -0.852,-0.137 -1.308,-0.263 -0.453,-0.132 -0.8,-0.351 -1.04,-0.655 -0.242,-0.308 -0.361,-0.689 -0.361,-1.154 v -7.924 c 0,-0.886 0.35,-1.503 1.055,-1.848 0.706,-0.34 1.761,-0.514 3.168,-0.514 1.392,0 2.444,0.174 3.157,0.529 0.712,0.352 1.068,0.962 1.068,1.832 v 0.905 h 4.336 v -0.874 c 0,-0.945 -0.204,-1.769 -0.612,-2.461 -0.407,-0.693 -0.907,-1.224 -1.498,-1.598"
   id="path3069" />

</g>
    <path
       style="fill:#002057"
       inkscape:connector-curvature="0"
       d="m 151.35957,948.07597 c -3.637,-8.598 -8.842,-16.319 -15.469,-22.95 -6.631,-6.629 -14.354,-11.834 -22.95,-15.471 -8.907,-3.769 -18.363999,-5.678 -28.108999,-5.678 -9.743,0 -19.202,1.909 -28.107,5.678 -8.598,3.637 -16.318,8.842 -22.949,15.471 -6.628,6.631 -11.834,14.353 -15.47,22.95 -3.768,8.905 -5.679,18.361 -5.679,28.106 v 57.53503 h 12.281 v -57.53403 c 0,-8.092 1.586,-15.938 4.707,-23.324 3.018,-7.133 7.34,-13.544 12.846,-19.048 5.502,-5.505 11.913,-9.828 19.048,-12.845 7.385,-3.124 15.231,-4.708 23.323,-4.708 8.092,0 15.939999,1.584 23.323999,4.708 7.135,3.017 13.543,7.34 19.051,12.845 5.504,5.504 9.827,11.915 12.846,19.048 3.121,7.386 4.703,15.232 4.703,23.324 v 57.53503 h 12.283 v -57.53503 c 0,-9.745 -1.914,-19.201 -5.679,-28.107"
       id="path3071" />
    <path
       style="fill:#002057"
       inkscape:connector-curvature="0"
       d="m 105.13057,932.96151 c -6.418999,-2.788 -13.246999,-4.204 -20.297999,-4.204 -6.876,0 -13.548,1.347 -19.835,4.008 -6.07,2.564 -11.519,6.238 -16.196,10.916 -4.679,4.679 -8.351,10.127 -10.918,16.196 -2.659,6.284 -4.006,12.96 -4.006,19.836 v 48.92199 l 12.278,-11.799 v -37.12299 c 0,-5.226 1.023,-10.288 3.039,-15.052 1.948,-4.606 4.737,-8.743 8.292,-12.295 3.552,-3.555 7.689,-6.345 12.294,-8.291 4.765,-2.017 9.829,-3.039 15.052,-3.039 5.354,0 10.536,1.073 15.399999,3.188 4.705,2.043 8.899,4.964 12.473,8.677 l 8.849,-8.512 c -4.702,-4.891 -10.227,-8.734 -16.424,-11.428"
       id="path3073" />
    <polygon
       style="fill:#002057"
       points="136.094,13.01 136.094,14.317 134.209,14.317 134.209,19.88 132.648,19.88 132.648,14.317 130.762,14.317 130.762,13.01 "
       id="polygon3075"
       transform="translate(8.5955709,905.07651)" />
    <path
       style="fill:#002057"
       inkscape:connector-curvature="0"
       d="m 145.23257,918.08651 h 1.643 l 1.148,3.086 0.414,1.201 h 0.041 l 0.41,-1.201 1.119,-3.086 h 1.629 v 6.87 h -1.441 v -2.52 c 0,-0.169 0.004,-0.354 0.02,-0.558 0.014,-0.204 0.031,-0.411 0.055,-0.617 0.021,-0.205 0.041,-0.411 0.063,-0.611 0.02,-0.201 0.039,-0.384 0.063,-0.553 h -0.043 l -0.568,1.591 -1.053,2.664 h -0.623 l -1.053,-2.664 -0.547,-1.591 h -0.045 c 0.025,0.169 0.045,0.352 0.066,0.553 0.021,0.2 0.039,0.406 0.057,0.611 0.018,0.206 0.033,0.413 0.049,0.617 0.016,0.203 0.02,0.389 0.02,0.558 v 2.52 h -1.422 v -6.87 z"
       id="path3077" />
    <path
       style="fill:#002057"
       inkscape:connector-curvature="0"
       d="m 97.594571,991.86851 c -3.214,3.372 -7.738,5.48299 -12.764,5.48299 -9.741,0 -17.64,-7.89599 -17.64,-17.63899 0,-9.743 7.898,-17.64 17.64,-17.64 4.975,0 9.458,2.065 12.666,5.375 l 8.793999,-8.411 c -5.42,-5.624 -13.026999,-9.131 -21.459999,-9.131 -16.462,0 -29.807,13.345 -29.807,29.807 0,16.46099 13.345,29.80699 29.807,29.80699 8.464,0 16.097999,-3.533 21.524999,-9.195 l -8.760999,-8.45599 z"
       id="path3079" />
    <path
       style="fill:#002057"
       inkscape:connector-curvature="0"
       d="m 131.87257,959.87751 c -1.186,-2.805 -2.62,-5.469 -4.268,-7.995 l -9.066,8.71 c 0.748,1.312 1.432,2.665 2.023,4.069 0.76,1.797 1.377,3.635 1.852,5.507 h 12.565 c -0.668,-3.521 -1.697,-6.961 -3.106,-10.291"
       id="path3081" />
    <path
       style="fill:#002057"
       inkscape:connector-curvature="0"
       d="m 123.58957,979.31551 c 0,0.132 0.008,0.265 0.008,0.397 v 37.12299 l 12.282,11.799 v -48.92099 c 0,-0.133 -0.008,-0.266 -0.01,-0.397 h -12.28 z"
       id="path3083" />
    <text
       xml:space="preserve"
       style="font-size:21.009655px;font-style:normal;font-variant:normal;font-weight:normal;font-stretch:normal;line-height:125%;letter-spacing:0px;word-spacing:0px;fill:#002057;fill-opacity:1;stroke:none;font-family:Montserrat;-inkscape-font-specification:Montserrat"
       x="171.49797"
       y="1033.6129"
       id="text3135"
       sodipodi:linespacing="125%"><tspan
         sodipodi:role="line"
         id="tspan3137"
         x="171.49797"
         y="1033.6129">HIGH PERFORMANCE ARRAY CONTROL</tspan></text>
    <path
       style="fill:none;stroke:#002057;stroke-width:1.00075054px;stroke-linecap:butt;stroke-linejoin:miter;stroke-opacity:1"
       d="m 172.85714,1050.2193 c 416.33854,0 416.33854,0 416.33854,0"
       id="path3907"
       inkscape:connector-curvature="0" />
  </g>
</svg>
